<?xml version="1.0" encoding="iso-8859-1"?>
<!-- Generator: Adobe Illustrator 19.0.0, SVG Export Plug-In . SVG Version: 6.00 Build 0)  -->
<svg version="1.1" id="Capa_1" xmlns="http://www.w3.org/2000/svg" xmlns:xlink="http://www.w3.org/1999/xlink" x="0px" y="0px"
	 viewBox="0 0 512 512" style="enable-background:new 0 0 512 512;" xml:space="preserve">
<g>
	<g>
		<path d="M256,236c-5.52,0-10,4.48-10,10s4.48,10,10,10s10-4.48,10-10S261.52,236,256,236z" fill="#ffffff"/>
	</g>
</g>
<g>
	<g>
		<path d="M502,76h-30V46c0-5.523-4.478-10-10-10H304.28c-17.729,0-34.558,5.855-48.28,16.649C242.277,41.855,225.448,36,207.72,36
			H50c-5.522,0-10,4.477-10,10v30H10C4.478,76,0,80.477,0,86v340c0,5.523,4.478,10,10,10h181.28
			c11.436,0,21.718,6.354,26.835,16.582C225.284,466.918,239.947,476,256,476c15.84,0,30.632-8.912,37.882-23.413
			c2.496-4.985,6.325-9.174,11.058-12.105c4.754-2.932,10.211-4.481,15.78-4.481H502c5.522,0,10-4.477,10-10V86
			C512,80.477,507.522,76,502,76z M60,56h147.72c14.227,0,27.667,5.078,38.28,14.354V206c0,5.523,4.478,10,10,10
			c5.522,0,10-4.477,10-10V70.354C276.613,61.078,290.053,56,304.28,56H452v320H304.28c-13.628,0-26.718,3.472-38.28,9.976V286
			c0-5.523-4.478-10-10-10c-5.522,0-10,4.477-10,10v99.976c-11.563-6.503-24.652-9.976-38.28-9.976H60V56z M492,416H320.72
			c-9.28,0-18.367,2.579-26.295,7.469c-7.899,4.892-14.271,11.865-18.429,20.168C272.268,451.094,264.584,456,256,456
			c-8.528,0-16.242-4.852-19.997-12.365C227.474,426.589,210.338,416,191.28,416H20V96h20v290c0,5.523,4.478,10,10,10h157.72
			c15.566,0,30.201,6.063,41.209,17.071c1.875,1.875,4.419,2.929,7.071,2.929s5.196-1.054,7.071-2.929
			C274.079,402.063,288.714,396,304.28,396H462c5.522,0,10-4.477,10-10V96h20V416z" fill="#ffffff"/>
	</g>
</g>
<g>
	<g>
		<path d="M216,96H90c-5.522,0-10,4.477-10,10v60c0,5.523,4.478,10,10,10h126c5.522,0,10-4.477,10-10v-60
			C226,100.477,221.522,96,216,96z M206,156H100v-40h106V156z" fill="#ffffff"/>
	</g>
</g>
<g>
	<g>
		<path d="M422,96H296c-5.522,0-10,4.477-10,10v60c0,5.523,4.478,10,10,10h126c5.522,0,10-4.477,10-10v-60
			C432,100.477,427.522,96,422,96z M412,156H306v-40h106V156z" fill="#ffffff"/>
	</g>
</g>
<g>
	<g>
		<path d="M216,196H90c-5.522,0-10,4.477-10,10s4.478,10,10,10h126c5.522,0,10-4.477,10-10S221.522,196,216,196z" fill="#ffffff"/>
	</g>
</g>
<g>
	<g>
		<path d="M422,196H296c-5.522,0-10,4.477-10,10s4.478,10,10,10h126c5.522,0,10-4.477,10-10S427.522,196,422,196z" fill="#ffffff"/>
	</g>
</g>
<g>
	<g>
		<path d="M216,236H90c-5.522,0-10,4.477-10,10s4.478,10,10,10h126c5.522,0,10-4.477,10-10S221.522,236,216,236z" fill="#ffffff"/>
	</g>
</g>
<g>
	<g>
		<path d="M216,276H90c-5.522,0-10,4.477-10,10s4.478,10,10,10h126c5.522,0,10-4.477,10-10S221.522,276,216,276z" fill="#ffffff"/>
	</g>
</g>
<g>
	<g>
		<path d="M216,316H90c-5.522,0-10,4.477-10,10s4.478,10,10,10h126c5.522,0,10-4.477,10-10S221.522,316,216,316z" fill="#ffffff"/>
	</g>
</g>
<g>
	<g>
		<path d="M422,236H296c-5.522,0-10,4.477-10,10s4.478,10,10,10h126c5.522,0,10-4.477,10-10S427.522,236,422,236z" fill="#ffffff"/>
	</g>
</g>
<g>
	<g>
		<path d="M422,276H296c-5.522,0-10,4.477-10,10s4.478,10,10,10h126c5.522,0,10-4.477,10-10S427.522,276,422,276z" fill="#ffffff"/>
	</g>
</g>
<g>
	<g>
		<path d="M422,316H296c-5.522,0-10,4.477-10,10s4.478,10,10,10h126c5.522,0,10-4.477,10-10S427.522,316,422,316z" fill="#ffffff"/>
	</g>
</g>
<g>
</g>
<g>
</g>
<g>
</g>
<g>
</g>
<g>
</g>
<g>
</g>
<g>
</g>
<g>
</g>
<g>
</g>
<g>
</g>
<g>
</g>
<g>
</g>
<g>
</g>
</svg>
