<?xml version="1.0" encoding="UTF-8" standalone="no"?> <svg width="512" height="512" viewBox="0 0 512 512" fill="none" xmlns="http://www.w3.org/2000/svg">
<path d="M480 136H448V112C447.986 99.274 442.924 87.0733 433.925 78.0747C424.927 69.076 412.726 64.0143 400 64H334.624C333.313 60.2826 331.105 56.946 328.196 54.2854C325.288 51.6248 321.768 49.7223 317.949 48.7465C314.129 47.7706 310.129 47.7514 306.3 48.6906C302.472 49.6298 298.934 51.4984 296 54.131C291.606 50.1836 285.907 48 280 48C274.093 48 268.394 50.1836 264 54.131C259.606 50.1836 253.907 48 248 48C242.093 48 236.394 50.1836 232 54.131C227.606 50.1836 221.907 48 216 48C210.093 48 204.394 50.1836 200 54.131C197.066 51.4984 193.528 49.6298 189.7 48.6906C185.871 47.7514 181.871 47.7706 178.051 48.7465C174.232 49.7223 170.712 51.6248 167.804 54.2854C164.895 56.946 162.687 60.2826 161.376 64H96C83.274 64.0143 71.0733 69.076 62.0747 78.0747C53.076 87.0733 48.0143 99.274 48 112V288H32C29.8783 288 27.8434 288.843 26.3431 290.343C24.8429 291.843 24 293.878 24 296V488C24 490.122 24.8429 492.157 26.3431 493.657C27.8434 495.157 29.8783 496 32 496H480C482.122 496 484.157 495.157 485.657 493.657C487.157 492.157 488 490.122 488 488V296C488 293.878 487.157 291.843 485.657 290.343C484.157 288.843 482.122 288 480 288H448V208H480C482.122 208 484.157 207.157 485.657 205.657C487.157 204.157 488 202.122 488 200V144C488 141.878 487.157 139.843 485.657 138.343C484.157 136.843 482.122 136 480 136ZM432 157.766L440 155.1V188.9L432 186.234V157.766ZM432 112V140C432.001 140.295 432.018 140.59 432.051 140.883L431.444 141.083C430.858 139.586 429.834 138.3 428.506 137.393C427.178 136.487 425.608 136.001 424 136H416V116C415.994 110.698 413.885 105.614 410.135 101.865C406.386 98.1152 401.302 96.0061 396 96H336V80H400C408.484 80.0095 416.618 83.384 422.617 89.3831C428.616 95.3822 431.99 103.516 432 112V112ZM293.043 288C290.255 281.621 288.595 274.806 288.137 267.859C290.905 265.75 293.073 262.955 294.427 259.749C295.781 256.544 296.273 253.04 295.855 249.586C295.437 246.131 294.123 242.846 292.043 240.057C289.964 237.267 287.191 235.069 284 233.682V185.221L288.636 170.386C289.196 168.592 289.107 166.658 288.385 164.923L278.385 140.923C277.778 139.465 276.752 138.22 275.438 137.343C274.124 136.467 272.579 136 271 136H249C247.421 136 245.876 136.467 244.562 137.343C243.248 138.22 242.223 139.465 241.615 140.923L231.615 164.923C230.893 166.658 230.804 168.592 231.364 170.386L236 185.221V233.682C232.809 235.069 230.036 237.267 227.957 240.057C225.877 242.846 224.563 246.131 224.145 249.586C223.727 253.04 224.219 256.544 225.573 259.749C226.927 262.955 229.095 265.75 231.863 267.859C231.405 274.806 229.745 281.621 226.957 288H208V234.422L213.781 225.75C220.444 215.755 224 204.012 224 192C224 179.988 220.444 168.245 213.781 158.25L206.656 147.562C205.925 146.466 204.936 145.568 203.775 144.947C202.613 144.325 201.317 144 200 144H184C181.878 144 179.843 144.843 178.343 146.343C176.843 147.843 176 149.878 176 152V184C176 186.122 175.157 188.157 173.657 189.657C172.157 191.157 170.122 192 168 192C165.878 192 163.843 191.157 162.343 189.657C160.843 188.157 160 186.122 160 184V152C160 149.878 159.157 147.843 157.657 146.343C156.157 144.843 154.122 144 152 144H136C134.683 144 133.387 144.325 132.225 144.947C131.064 145.568 130.075 146.466 129.344 147.562L122.219 158.25C115.556 168.245 112 179.988 112 192C112 204.012 115.556 215.755 122.219 225.75L128 234.422V288H96V116C96 114.939 96.4214 113.922 97.1716 113.172C97.9217 112.421 98.9391 112 100 112H161.376C162.687 115.717 164.895 119.054 167.804 121.715C170.712 124.375 174.232 126.278 178.051 127.254C181.871 128.229 185.871 128.249 189.7 127.309C193.528 126.37 197.066 124.502 200 121.869C204.394 125.816 210.093 128 216 128C221.907 128 227.606 125.816 232 121.869C236.394 125.816 242.093 128 248 128C253.907 128 259.606 125.816 264 121.869C268.394 125.816 274.093 128 280 128C285.907 128 291.606 125.816 296 121.869C298.934 124.502 302.472 126.37 306.3 127.309C310.129 128.249 314.129 128.229 317.949 127.254C321.768 126.278 325.288 124.375 328.196 121.715C331.105 119.054 333.313 115.717 334.624 112H396C397.061 112 398.078 112.421 398.828 113.172C399.579 113.922 400 114.939 400 116V136H344C333.073 135.987 322.457 139.634 313.843 146.358C305.23 153.082 299.117 162.497 296.478 173.1L296.239 174.056C295.943 175.236 295.921 176.467 296.173 177.657C296.425 178.847 296.944 179.963 297.693 180.922C298.441 181.881 299.398 182.656 300.491 183.19C301.584 183.723 302.784 184 304 184H336V200C336 202.122 336.843 204.157 338.343 205.657C339.843 207.157 341.878 208 344 208H360V230.245C357.664 235.547 356.397 241.258 356.273 247.05C356.149 252.843 357.169 258.603 359.275 264C356.296 271.632 355.504 279.943 356.989 288H293.043ZM251.636 181.614L247.5 168.391L254.333 152H265.667L272.496 168.391L268.364 181.614C268.123 182.386 268 183.191 268 184V232H252V184C252 183.191 251.877 182.386 251.636 181.614V181.614ZM240 252C240 250.939 240.421 249.922 241.172 249.172C241.922 248.421 242.939 248 244 248H276C277.061 248 278.078 248.421 278.828 249.172C279.579 249.922 280 250.939 280 252C280 253.061 279.579 254.078 278.828 254.828C278.078 255.579 277.061 256 276 256H244C242.939 256 241.922 255.579 241.172 254.828C240.421 254.078 240 253.061 240 252ZM247.571 272H272.429C273.013 277.443 274.179 282.807 275.909 288H244.091C245.821 282.807 246.987 277.443 247.571 272ZM168 240C165.878 240 163.843 240.843 162.343 242.343C160.843 243.843 160 245.878 160 248V288H144V232C144 230.42 143.532 228.876 142.656 227.562L135.531 216.875C130.62 209.508 128 200.853 128 192C128 183.147 130.62 174.492 135.531 167.125L140.281 160H144V184C144 190.365 146.529 196.47 151.029 200.971C155.53 205.471 161.635 208 168 208C174.365 208 180.47 205.471 184.971 200.971C189.471 196.47 192 190.365 192 184V160H195.719L200.469 167.125C205.38 174.492 208 183.147 208 192C208 200.853 205.38 209.508 200.469 216.875L193.344 227.562C192.468 228.876 192 230.42 192 232V288H176V248C176 245.878 175.157 243.843 173.657 242.343C172.157 240.843 170.122 240 168 240ZM336 168H315.714C317.941 164.285 320.88 161.046 324.361 158.468C327.842 155.891 331.797 154.025 336 152.978V168ZM402.6 256H373.41C371.855 250.78 371.855 245.22 373.41 240H402.6C404.155 245.22 404.155 250.78 402.6 256V256ZM373.41 272H402.6C404.155 277.22 404.155 282.78 402.6 288H373.41C371.853 282.781 371.852 277.22 373.405 272H373.41ZM400 224H376V208H400V224ZM352 192V152H416V192H352ZM312 64C314.121 64.0024 316.154 64.846 317.654 66.3458C319.154 67.8456 319.998 69.879 320 72V104C320 106.122 319.157 108.157 317.657 109.657C316.157 111.157 314.122 112 312 112C309.878 112 307.843 111.157 306.343 109.657C304.843 108.157 304 106.122 304 104V72C304.002 69.879 304.846 67.8456 306.346 66.3458C307.846 64.846 309.879 64.0024 312 64V64ZM280 64C282.121 64.0024 284.154 64.846 285.654 66.3458C287.154 67.8456 287.998 69.879 288 72V104C288 106.122 287.157 108.157 285.657 109.657C284.157 111.157 282.122 112 280 112C277.878 112 275.843 111.157 274.343 109.657C272.843 108.157 272 106.122 272 104V72C272.002 69.879 272.846 67.8456 274.346 66.3458C275.846 64.846 277.879 64.0024 280 64V64ZM248 64C250.121 64.0024 252.154 64.846 253.654 66.3458C255.154 67.8456 255.998 69.879 256 72V104C256 106.122 255.157 108.157 253.657 109.657C252.157 111.157 250.122 112 248 112C245.878 112 243.843 111.157 242.343 109.657C240.843 108.157 240 106.122 240 104V72C240.002 69.879 240.846 67.8456 242.346 66.3458C243.846 64.846 245.879 64.0024 248 64V64ZM216 64C218.121 64.0024 220.154 64.846 221.654 66.3458C223.154 67.8456 223.998 69.879 224 72V104C224 106.122 223.157 108.157 221.657 109.657C220.157 111.157 218.122 112 216 112C213.878 112 211.843 111.157 210.343 109.657C208.843 108.157 208 106.122 208 104V72C208.002 69.879 208.846 67.8456 210.346 66.3458C211.846 64.846 213.879 64.0024 216 64V64ZM184 64C186.121 64.0024 188.154 64.846 189.654 66.3458C191.154 67.8456 191.998 69.879 192 72V104C192 106.122 191.157 108.157 189.657 109.657C188.157 111.157 186.122 112 184 112C181.878 112 179.843 111.157 178.343 109.657C176.843 108.157 176 106.122 176 104V72C176.002 69.879 176.846 67.8456 178.346 66.3458C179.846 64.846 181.879 64.0024 184 64V64ZM64 112C64.0095 103.516 67.384 95.3822 73.3831 89.3831C79.3822 83.384 87.516 80.0095 96 80H160V96H100C94.6975 96.0061 89.614 98.1152 85.8646 101.865C82.1152 105.614 80.0061 110.698 80 116V288H64V112ZM472 416H40V368H472V416ZM472 480H40V432H472V480ZM472 352H40V304H472V352ZM419.011 288C420.496 279.943 419.704 271.632 416.725 264C418.831 258.603 419.851 252.843 419.727 247.05C419.603 241.258 418.336 235.547 416 230.245V208H424C425.608 207.999 427.179 207.513 428.506 206.606C429.834 205.699 430.858 204.413 431.444 202.915L432.051 203.115C432.018 203.409 432.001 203.704 432 204V288H419.011ZM472 192H456V152H472V192Z" fill="#ffffff"/>
<path d="M80 336C84.4183 336 88 332.418 88 328C88 323.582 84.4183 320 80 320C75.5817 320 72 323.582 72 328C72 332.418 75.5817 336 80 336Z" fill="#ffffff"/>
<path d="M80 400C84.4183 400 88 396.418 88 392C88 387.582 84.4183 384 80 384C75.5817 384 72 387.582 72 392C72 396.418 75.5817 400 80 400Z" fill="#ffffff"/>
<path d="M80 464C84.4183 464 88 460.418 88 456C88 451.582 84.4183 448 80 448C75.5817 448 72 451.582 72 456C72 460.418 75.5817 464 80 464Z" fill="#ffffff"/>
<path d="M432 336C436.418 336 440 332.418 440 328C440 323.582 436.418 320 432 320C427.582 320 424 323.582 424 328C424 332.418 427.582 336 432 336Z" fill="#ffffff"/>
<path d="M432 400C436.418 400 440 396.418 440 392C440 387.582 436.418 384 432 384C427.582 384 424 387.582 424 392C424 396.418 427.582 400 432 400Z" fill="#ffffff"/>
<path d="M432 464C436.418 464 440 460.418 440 456C440 451.582 436.418 448 432 448C427.582 448 424 451.582 424 456C424 460.418 427.582 464 432 464Z" fill="#ffffff"/>
</svg>
